ply
format ascii 1.0
element component 5
property float x
property float y
property float z
property float covxx
property float covxy
property float covxz
property float covyy
property float covyz
property float covzz
property float weight
end_header
-1.908697009086608887e+00  -1.322564244270324707e+00  1.999999629333615303e-03  2.807377576828002930e-01  -1.544213742017745972e-01  -5.775902047753334045e-02  8.176398873329162598e-01  -1.944518685340881348e-01  2.896836698055267334e-01  6.153984665870666504e-01
7.208714634180068970e-02  7.886704206466674805e-01  1.999995671212673187e-03  3.815252780914306641e-01  1.802073866128921509e-01  3.796251863241195679e-02  5.376356840133666992e-01  -1.993892788887023926e-01  3.468422889709472656e-01  -1.163715571165084839e-01
-1.357882142066955566e+00  -8.729256391525268555e-01  2.000000094994902611e-03  3.915944099426269531e-01  5.417166650295257568e-02  2.280956506729125977e-01  5.174733400344848633e-01  1.379273384809494019e-01  5.935856103897094727e-01  -8.725157380104064941e-01
1.662775874137878418e+00  -4.096003472805023193e-01  -2.000000094994902611e-03  7.395594716072082520e-01  -2.143354415893554688e-01  9.410943835973739624e-02  3.539799451828002930e-01  -3.193958476185798645e-02  3.557049930095672607e-01  2.283725142478942871e-01
-3.243667185306549072e-01  2.096281945705413818e-01  1.999999629333615303e-03  6.077759265899658203e-01  8.973681926727294922e-02  1.222560405731201172e-01  5.880963206291198730e-01  -3.917958587408065796e-02  4.635334014892578125e-01  -4.328089654445648193e-01
